<svg width="578" height="445" viewBox="0 0 578 445" fill="none" xmlns="http://www.w3.org/2000/svg">
<g clip-path="url(#clip0_610_4814)">
<path d="M564.303 36.5215H315.565C310.897 36.5215 307.113 40.2897 307.113 44.9379V391.523C307.113 396.171 310.897 399.939 315.565 399.939H564.303C568.97 399.939 572.754 396.171 572.754 391.523V44.9379C572.754 40.2897 568.97 36.5215 564.303 36.5215Z" fill="#FFCE70"/>
<path d="M546.188 55.9873H333.597C329.6 55.9873 326.359 59.2144 326.359 63.1952V371.626C326.359 375.607 329.6 378.834 333.597 378.834H546.188C550.186 378.834 553.426 375.607 553.426 371.626V63.1952C553.426 59.2144 550.186 55.9873 546.188 55.9873Z" fill="#F0E5F6"/>
<path d="M415.815 390.056C457.848 390.056 491.923 342.982 491.923 284.915C491.923 226.847 457.848 179.774 415.815 179.774C373.782 179.774 339.707 226.847 339.707 284.915C339.707 342.982 373.782 390.056 415.815 390.056Z" fill="white"/>
<path fill-rule="evenodd" clip-rule="evenodd" d="M475.668 175.113C487.264 177.284 498.085 182.448 507.048 190.09C521.35 203.513 530.496 227.208 512.812 229.41C502.974 230.618 477.662 231.697 468.647 227.208C454.648 220.173 456.121 183.141 472.331 177.573C472.721 177.4 475.192 174.767 475.668 175.113Z" fill="white"/>
<path fill-rule="evenodd" clip-rule="evenodd" d="M296.408 68.5904C302.953 67.7272 301.002 63.7563 318.642 63.7563C334.766 63.7563 364.238 85.5528 369.309 102.817C371.129 109.033 374.813 113.305 377.717 124.139C385.519 153.489 399.041 162.25 400.038 197.513C400.472 212.62 383.828 261.91 375.723 271.664C359.514 291.259 352.362 295.403 326.271 303.517C298.619 312.149 243.922 313.056 214.059 311.114C208.94 310.43 204.165 308.162 200.409 304.631C196.653 301.099 194.105 296.483 193.125 291.432C191.218 275.074 173.665 277.664 178.996 243.782C181.553 227.597 188.791 241.581 181.336 209.555C173.665 176.623 232.089 126.168 239.631 100.789C250.9 63.4111 274.867 71.4391 296.408 68.5904Z" fill="#4B4680"/>
<path fill-rule="evenodd" clip-rule="evenodd" d="M266.892 118.312C265.939 117.708 267.543 121.29 269.493 124.571C276.384 136.181 265.939 157.503 287.436 175.889C299.233 169.064 310.466 161.314 321.026 152.712C331.168 144.08 339.75 133.98 349.025 124.916C349.116 124.737 349.188 124.549 349.242 124.355C351.539 119.176 356.176 109.81 349.242 105.752C339.533 99.9256 340.877 113.608 341.007 116.37C341.007 117.137 340.701 117.873 340.156 118.415C339.612 118.957 338.873 119.262 338.103 119.262C337.333 119.262 336.594 118.957 336.049 118.415C335.505 117.873 335.199 117.137 335.199 116.37C328.568 91.5524 308.327 105.105 294.068 93.2788C290.037 103.249 268.193 119.176 266.892 118.312Z" fill="#FCD2D3"/>
<path fill-rule="evenodd" clip-rule="evenodd" d="M274.956 250.99C264.554 262.687 261.954 273.391 243.317 290.828C223.64 309.431 217.008 343.485 213.324 372.187C204.396 444.525 329.913 455.359 369.744 436.929C398.35 423.981 423.271 359.929 443.425 353.585C499.509 336.061 410.962 285.692 387.081 284.527C359.646 283.232 320.421 256.644 276.69 252.846L274.956 250.99Z" fill="#EBF5FF"/>
<path fill-rule="evenodd" clip-rule="evenodd" d="M256.015 253.148C256.795 266.485 266.98 313.142 283.97 313.142C329.609 313.142 295.542 344.046 348.376 342.233C357.868 341.974 374.641 333.342 373.687 323.501C372.604 311.977 412.262 322.422 417.766 313.617C435.103 286.037 402.293 277.448 455.343 243.437C482.518 226.172 459.027 208.217 478.921 185.471C494.914 167.128 473.46 172.091 485.552 142.31C498.121 111.579 473.373 115.118 459.981 96.0412C451.702 84.215 417.896 78.7767 405.847 83.9129C388.814 91.5092 376.591 103.379 362.505 113.478C347.422 124.182 335.98 140.152 321.244 152.323C278.032 188.881 251.681 177.314 256.015 253.148Z" fill="#7872B8"/>
<path fill-rule="evenodd" clip-rule="evenodd" d="M513.204 228.158C504.535 224.705 488.152 219.309 477.88 225.395C471.292 247.666 435.969 295.791 415.988 302.611C404.59 306.495 395.315 308.179 384.002 303.56C378.671 301.359 367.966 306.107 360.988 307.056C356.654 307.661 342.438 307.056 342.438 308.265C342.048 317.76 353.533 315.343 361.205 316.897C368.876 318.451 372.083 322.033 364.152 327.04C360.078 329.63 353.62 331.356 348.809 333.73C345.948 335.241 334.896 338.046 328.005 340.506C319.727 343.398 321.72 346.722 328.568 347.542C339.187 348.836 357.737 337.701 358.561 344.434C359.384 351.167 322.371 354.793 335.59 362.691C339.924 365.195 372.387 350.649 369.526 352.678C364.932 355.958 343.218 362.432 346.122 370.719C350.803 375.035 373.124 358.289 377.891 357.771C384.392 357.08 367.836 369.856 366.232 373.266C364.629 376.675 364.629 380.085 376.764 373.525C393.494 364.418 395.575 348.707 415.252 341.715C434.194 334.866 451.389 323.947 465.615 309.732C488.412 285.864 501.111 254.918 513.204 228.158Z" fill="#FCD2D3"/>
<path fill-rule="evenodd" clip-rule="evenodd" d="M262.04 283.275C262.344 317.2 269.192 351.599 297.624 350.218C303.388 349.916 311.883 357.987 318.124 361.224C321.982 363.21 335.461 367.569 335.201 368.562C332.384 377.582 322.198 371.497 314.657 370.331C307.115 369.166 302.651 371.583 308.459 378.964C311.45 382.762 317.127 386.387 320.638 390.401C322.848 392.775 332.297 399.034 337.975 403.738C344.779 409.22 341.789 411.68 335.071 410.169C324.626 407.838 310.93 391.135 307.852 397.221C304.775 403.307 338.451 419.104 323.369 422.125C318.601 423.074 292.726 398.472 294.763 401.364C297.97 405.939 316.434 419.276 310.713 426.139C304.862 428.642 289.475 405.421 285.141 403.393C279.247 400.587 290.559 418.111 290.949 421.866C291.339 425.621 290.126 428.858 280.894 418.586C268.195 404.472 272.572 385.438 257.576 371.108C221.559 336.32 206.606 247.408 258.443 209.469C255.372 223.817 254.554 238.551 256.016 253.148C256.976 263.371 258.995 273.466 262.04 283.275V283.275Z" fill="#FCD2D3"/>
<path fill-rule="evenodd" clip-rule="evenodd" d="M513.421 236.1C511.688 276.11 497.341 319.099 461.411 341.154C461.411 341.154 458.031 333.256 455.387 327.084C459.111 324.1 462.643 320.885 465.962 317.459C488.76 293.59 501.416 262.644 513.638 235.884L513.421 236.1Z" fill="#FCD2D3"/>
<path fill-rule="evenodd" clip-rule="evenodd" d="M374.596 17.9622C374.007 21.6677 371.986 24.997 368.965 27.239C365.945 29.4809 362.163 30.4579 358.429 29.9611C354.56 29.3627 351.064 27.3221 348.65 24.2526C346.236 21.1831 345.083 17.3143 345.427 13.4303C346.147 9.54244 348.361 6.08729 351.598 3.79855C354.835 1.50982 358.84 0.567778 362.763 1.17249C364.671 1.4427 366.501 2.10198 368.141 3.10909C369.78 4.11619 371.194 5.44944 372.292 7.02541C373.39 8.60138 374.15 10.3861 374.524 12.268C374.898 14.1499 374.878 16.0884 374.466 17.9622H374.596ZM409.789 12.6534C409.965 11.9126 410.294 11.2165 410.755 10.6093C411.216 10.0021 411.799 9.49716 412.466 9.12663C413.134 8.75609 413.872 8.52809 414.633 8.45715C415.394 8.38621 416.161 8.47388 416.886 8.71458C417.612 8.95529 418.278 9.34374 418.844 9.8552C419.411 10.3667 419.863 10.9899 420.174 11.6853C420.485 12.3807 420.647 13.1329 420.65 13.894C420.653 14.6552 420.497 15.4086 420.191 16.1063C419.69 17.4694 418.681 18.5882 417.374 19.231C416.067 19.8738 414.561 19.9913 413.17 19.5592C411.823 19.0609 410.721 18.0657 410.092 16.78C409.462 15.4942 409.354 14.0166 409.789 12.6534ZM493.048 52.7934C493.983 51.2804 495.21 49.9671 496.658 48.9297C498.106 47.8923 499.746 47.1514 501.483 46.7499C503.221 46.3484 505.021 46.2944 506.78 46.5909C508.539 46.8874 510.221 47.5286 511.729 48.4772C513.238 49.3621 514.552 50.5416 515.593 51.9449C516.633 53.3481 517.378 54.9462 517.783 56.6432C518.188 58.3403 518.244 60.1013 517.948 61.8205C517.653 63.5398 517.011 65.1818 516.063 66.6481C514.2 69.4996 511.314 71.5346 507.995 72.3369C504.676 73.1392 501.174 72.6482 498.206 70.9643C495.167 69.1755 492.935 66.2902 491.975 62.9069C491.015 59.5236 491.399 55.902 493.048 52.7934ZM564.129 211.152C565.547 210.727 567.039 210.601 568.509 210.784C569.979 210.967 571.394 211.455 572.663 212.215C573.933 212.975 575.029 213.991 575.88 215.198C576.732 216.405 577.32 217.776 577.608 219.223C578.033 220.593 578.146 222.039 577.94 223.458C577.735 224.876 577.215 226.232 576.418 227.426C575.622 228.62 574.569 229.622 573.335 230.361C572.102 231.1 570.719 231.556 569.286 231.697C566.687 232.212 563.987 231.752 561.707 230.405C559.428 229.059 557.727 226.921 556.934 224.403C556.299 221.7 556.681 218.859 558.006 216.418C559.332 213.976 561.51 212.103 564.129 211.152ZM560.575 161.43C559.957 161.589 559.314 161.625 558.683 161.536C558.051 161.448 557.443 161.236 556.894 160.913C556.345 160.591 555.864 160.163 555.481 159.656C555.097 159.149 554.818 158.571 554.659 157.956C554.499 157.341 554.463 156.701 554.552 156.072C554.641 155.443 554.854 154.838 555.178 154.29C555.502 153.743 555.931 153.265 556.44 152.883C556.95 152.501 557.53 152.223 558.148 152.064C559.425 151.692 560.795 151.809 561.99 152.392C563.185 152.975 564.118 153.982 564.605 155.215C564.731 156.519 564.397 157.826 563.662 158.912C562.927 159.999 561.835 160.797 560.575 161.171V161.43ZM485.074 61.4256C491.531 49.9016 486.807 39.845 477.315 32.0328C477.315 32.0328 476.102 31.1696 475.842 30.9969C465.743 24.1343 450.487 22.6236 443.509 34.5362C437.138 45.4991 443.509 57.8864 452.957 64.4469L454.344 65.3101C465.396 71.5254 476.839 72.4749 485.074 61.4256ZM387.078 34.1045C387.409 33.1645 387.546 32.1679 387.481 31.174C387.417 30.1801 387.153 29.2093 386.704 28.3193C386.255 27.4293 385.631 26.6383 384.869 25.9935C384.106 25.3487 383.222 24.8632 382.267 24.5659C381.273 24.4134 380.258 24.4593 379.282 24.701C378.306 24.9428 377.387 25.3755 376.581 25.974C375.774 26.5724 375.095 27.3248 374.583 28.1871C374.071 29.0494 373.736 30.0046 373.599 30.9969C373.11 32.9069 373.36 34.9302 374.299 36.6652C375.239 38.4001 376.799 39.72 378.67 40.3629C380.604 40.5585 382.541 40.0239 384.098 38.8649C385.655 37.706 386.719 36.0071 387.078 34.1045Z" fill="#7872B8"/>
</g>
<path fill-rule="evenodd" clip-rule="evenodd" d="M65.5001 173.491C64.744 173.319 64.0321 172.992 63.4097 172.529C62.7873 172.067 62.268 171.48 61.8849 170.806C61.5018 170.132 61.2632 169.385 61.1845 168.614C61.1058 167.842 61.1885 167.063 61.4275 166.325C61.6665 165.588 62.0565 164.908 62.5727 164.329C63.0889 163.751 63.7199 163.286 64.4255 162.965C65.1312 162.643 65.896 162.473 66.6713 162.463C67.4466 162.454 68.2153 162.606 68.9286 162.91C70.3214 163.407 71.4696 164.421 72.1355 165.741C72.8014 167.062 72.9339 168.588 72.5056 170.003C72.0095 171.373 71.0051 172.5 69.7008 173.149C68.3965 173.799 66.8923 173.921 65.5001 173.491ZM110.888 102.458C99.0943 96.0053 88.8908 100.883 81.0141 110.578C81.0141 110.578 80.1451 111.817 79.9715 112.082C73.0672 122.385 75.3092 132.122 87.5028 139.099C98.724 145.469 111.288 138.9 117.89 129.26L118.757 127.846C124.994 116.581 122.213 110.717 110.888 102.458ZM87.5437 196.347C86.5834 196.02 85.5671 195.889 84.5552 195.963C83.5434 196.036 82.5567 196.313 81.654 196.776C80.7513 197.239 79.9509 197.878 79.3006 198.657C78.6502 199.436 78.1632 200.337 77.8686 201.308C77.7217 202.318 77.7771 203.347 78.0316 204.335C78.2862 205.324 78.7348 206.251 79.3513 207.065C79.9678 207.878 80.7399 208.56 81.6226 209.072C82.5053 209.584 83.4811 209.915 84.4931 210.047C86.4428 210.526 88.5016 210.255 90.2608 209.288C92.0201 208.32 93.3512 206.726 93.9902 204.823C94.1729 202.859 93.6119 200.899 92.4181 199.329C91.2243 197.759 89.4847 196.695 87.5437 196.347Z" fill="#EBF5FF"/>
<path fill-rule="evenodd" clip-rule="evenodd" d="M266.378 15.2379C265.932 13.8027 265.792 12.2903 265.966 10.7977C266.14 9.30513 266.624 7.86545 267.387 6.57122C268.151 5.27698 269.177 4.1568 270.399 3.2827C271.621 2.40859 273.013 1.7999 274.484 1.49571C275.876 1.05329 277.348 0.925807 278.795 1.12247C280.241 1.31913 281.626 1.83501 282.849 2.6328C284.072 3.43058 285.102 4.49026 285.865 5.73519C286.628 6.98012 287.105 8.37916 287.261 9.83094C287.807 12.4638 287.362 15.2057 286.01 17.53C284.658 19.8543 282.495 21.597 279.936 22.4233C277.188 23.0904 274.292 22.7277 271.793 21.4037C269.295 20.0796 267.368 17.8861 266.378 15.2379ZM215.761 19.2666C215.928 19.8917 215.97 20.5435 215.885 21.1849C215.8 21.8263 215.59 22.4447 215.266 23.0047C214.942 23.5647 214.511 24.0555 213.997 24.4489C213.483 24.8423 212.897 25.1306 212.272 25.2975C211.647 25.4644 210.995 25.5066 210.354 25.4216C209.713 25.3366 209.094 25.1261 208.534 24.8021C207.974 24.4781 207.483 24.047 207.09 23.5334C206.697 23.0197 206.408 22.4336 206.241 21.8085C205.851 20.5162 205.959 19.1247 206.542 17.9076C207.126 16.6904 208.144 15.7356 209.396 15.2307C210.723 15.0928 212.057 15.42 213.17 16.1565C214.283 16.893 215.369 17.9909 215.761 19.2666Z" fill="#EBF5FF"/>
<path fill-rule="evenodd" clip-rule="evenodd" d="M124.526 44.8303C122.948 43.9448 121.561 42.7548 120.446 41.3295C119.331 39.9041 118.51 38.2718 118.031 36.5269C117.551 34.782 117.423 32.9594 117.653 31.1647C117.883 29.3699 118.467 27.6388 119.371 26.0715C120.21 24.5055 121.357 23.1251 122.743 22.0134C124.129 20.9017 125.725 20.0815 127.436 19.602C129.147 19.1225 130.937 18.9936 132.699 19.223C134.461 19.4525 136.158 20.0356 137.689 20.9374C140.667 22.7089 142.856 25.5513 143.808 28.8832C144.76 32.215 144.403 35.7845 142.81 38.8614C141.114 42.0152 138.268 44.3947 134.863 45.506C131.459 46.6174 127.757 46.3754 124.526 44.8303Z" fill="#EBF5FF"/>
<path fill-rule="evenodd" clip-rule="evenodd" d="M7.37609 149.945C5.84235 149.084 4.49463 147.928 3.41104 146.542C2.32744 145.157 1.52953 143.571 1.06355 141.875V141.875C0.137995 138.506 1.20756 134.964 2.6133 131.767C2.86953 131.184 3.12365 130.669 3.41104 130.17C4.2266 128.648 5.34129 127.307 6.6882 126.226C8.03512 125.146 9.58649 124.349 11.2492 123.883C12.9119 123.417 14.6517 123.291 16.3642 123.514C18.0766 123.737 19.7264 124.304 21.2145 125.181C24.109 126.902 26.2364 129.665 27.1616 132.903C28.0868 136.141 26.6951 141.153 25.1469 144.144C23.4978 147.209 20.732 149.522 17.4232 150.602C14.1144 151.682 10.5166 151.447 7.37609 149.945Z" fill="#EBF5FF"/>
<defs>
<clipPath id="clip0_610_4814">
<rect width="400" height="444" fill="white" transform="translate(178 1)"/>
</clipPath>
</defs>
</svg>
